<svg xmlns="http://www.w3.org/2000/svg" viewBox="0 0 512 512">
  <defs>
    <linearGradient id="grad" x1="0%" y1="0%" x2="100%" y2="100%">
      <stop offset="0%" style="stop-color:#00d4ff"/>
      <stop offset="100%" style="stop-color:#0066ff"/>
    </linearGradient>
    <linearGradient id="grad2" x1="0%" y1="0%" x2="100%" y2="100%">
      <stop offset="0%" style="stop-color:#0066ff"/>
      <stop offset="100%" style="stop-color:#7c3aed"/>
    </linearGradient>
  </defs>
  
  <!-- Background -->
  <rect width="512" height="512" rx="96" fill="#0a0a0b"/>
  
  <!-- Outer glow ring -->
  <circle cx="256" cy="256" r="180" fill="none" stroke="url(#grad)" stroke-width="2" opacity="0.3"/>
  
  <!-- Shield shape -->
  <path d="M256 80c-60 0-112 15-140 35-8 5-12 15-12 25v100c0 80 60 150 150 170 2 0 4 0 4 0 90-20 150-90 150-170V140c0-10-4-20-12-25-28-20-80-35-140-35z" fill="url(#grad)" opacity="0.15"/>
  
  <path d="M256 100c-52 0-97 13-122 30-5 3-8 10-8 17v93c0 70 52 130 128 148 76-18 128-78 128-148V147c0-7-3-14-8-17-25-17-70-30-118-30z" fill="none" stroke="url(#grad)" stroke-width="8" stroke-linecap="round" stroke-linejoin="round"/>
  
  <!-- Checkmark -->
  <path d="M200 260l40 40 72-80" fill="none" stroke="url(#grad2)" stroke-width="24" stroke-linecap="round" stroke-linejoin="round"/>
  
  <!-- Decorative dots -->
  <circle cx="160" cy="180" r="6" fill="#00d4ff" opacity="0.6"/>
  <circle cx="352" cy="180" r="6" fill="#7c3aed" opacity="0.6"/>
  <circle cx="256" cy="380" r="6" fill="#0066ff" opacity="0.6"/>
</svg>
